<?xml version="1.0" encoding="UTF-8" standalone="no"?>
<!DOCTYPE svg PUBLIC "-//W3C//DTD SVG 1.1//EN"
 "http://www.w3.org/Graphics/SVG/1.1/DTD/svg11.dtd">
<!-- Generated by graphviz version 2.50.0 (20211204.2007)
 -->
<!-- Title: test Pages: 1 -->
<svg width="497pt" height="85pt"
 viewBox="0.00 0.00 497.00 85.00" xmlns="http://www.w3.org/2000/svg" xmlns:xlink="http://www.w3.org/1999/xlink">
<g id="graph0" class="graph" transform="scale(1 1) rotate(0) translate(4 81)">
<title>test</title>
<polygon fill="white" stroke="transparent" points="-4,4 -4,-81 493,-81 493,4 -4,4"/>
<!-- Node1 -->
<g id="node1" class="node">
<title>Node1</title>
<g id="a_node1"><a xlink:title="Self&#45;test implementations.">
<polygon fill="#bfbfbf" stroke="black" points="0,-38.5 0,-57.5 33,-57.5 33,-38.5 0,-38.5"/>
<text text-anchor="middle" x="16.5" y="-45.5" font-family="Helvetica,sans-Serif" font-size="10.00">test</text>
</a>
</g>
</g>
<!-- Node2 -->
<g id="node2" class="node">
<title>Node2</title>
<g id="a_node2"><a target="_blank" xlink:href="http://en.cppreference.com/w/cpp/string/basic_string/compare.html#" xlink:title=" ">
<polygon fill="white" stroke="black" points="73.5,-57.5 73.5,-76.5 177.5,-76.5 177.5,-57.5 73.5,-57.5"/>
<text text-anchor="middle" x="125.5" y="-64.5" font-family="Helvetica,sans-Serif" font-size="10.00">std::string::compare</text>
</a>
</g>
</g>
<!-- Node1&#45;&gt;Node2 -->
<g id="edge1" class="edge">
<title>Node1&#45;&gt;Node2</title>
<path fill="none" stroke="midnightblue" d="M33.29,-50.8C41.56,-52.27 52.28,-54.18 63.45,-56.16"/>
<polygon fill="midnightblue" stroke="midnightblue" points="62.87,-59.61 73.33,-57.91 64.1,-52.72 62.87,-59.61"/>
</g>
<!-- Node3 -->
<g id="node3" class="node">
<title>Node3</title>
<g id="a_node3"><a xlink:href="../../d9/de1/class_mc_cluskey.html#ac3e85501476e89d34c14af1b3ddb0f9a" target="_top" xlink:title="execution function">
<polygon fill="white" stroke="black" points="69,-19.5 69,-38.5 182,-38.5 182,-19.5 69,-19.5"/>
<text text-anchor="middle" x="125.5" y="-26.5" font-family="Helvetica,sans-Serif" font-size="10.00">McCluskey::quineExe</text>
</a>
</g>
</g>
<!-- Node1&#45;&gt;Node3 -->
<g id="edge2" class="edge">
<title>Node1&#45;&gt;Node3</title>
<path fill="none" stroke="midnightblue" d="M33.29,-45.2C40.95,-43.84 50.72,-42.1 61,-40.28"/>
<polygon fill="midnightblue" stroke="midnightblue" points="61.72,-43.7 70.96,-38.51 60.5,-36.81 61.72,-43.7"/>
</g>
<!-- Node4 -->
<g id="node4" class="node">
<title>Node4</title>
<g id="a_node4"><a xlink:href="../../d9/de1/class_mc_cluskey.html#ae80ae7273e5e62af9c6ebe7cac25e545" target="_top" xlink:title="This is a function that receives a number from 0 to 15, creates a node, and adds it to the vector....">
<polygon fill="white" stroke="black" points="218,-19.5 218,-38.5 337,-38.5 337,-19.5 218,-19.5"/>
<text text-anchor="middle" x="277.5" y="-26.5" font-family="Helvetica,sans-Serif" font-size="10.00">McCluskey::selectNum</text>
</a>
</g>
</g>
<!-- Node3&#45;&gt;Node4 -->
<g id="edge3" class="edge">
<title>Node3&#45;&gt;Node4</title>
<path fill="none" stroke="midnightblue" d="M182.35,-29C190.59,-29 199.15,-29 207.6,-29"/>
<polygon fill="midnightblue" stroke="midnightblue" points="207.84,-32.5 217.84,-29 207.84,-25.5 207.84,-32.5"/>
</g>
<!-- Node5 -->
<g id="node5" class="node">
<title>Node5</title>
<g id="a_node5"><a xlink:href="../../d9/de1/class_mc_cluskey.html#ade670fff7c8f07a9698d34c56c370c69" target="_top" xlink:title="function that counts the number of 1">
<polygon fill="white" stroke="black" points="380.5,-38.5 380.5,-57.5 481.5,-57.5 481.5,-38.5 380.5,-38.5"/>
<text text-anchor="middle" x="431" y="-45.5" font-family="Helvetica,sans-Serif" font-size="10.00">McCluskey::count1</text>
</a>
</g>
</g>
<!-- Node4&#45;&gt;Node5 -->
<g id="edge4" class="edge">
<title>Node4&#45;&gt;Node5</title>
<path fill="none" stroke="midnightblue" d="M337.07,-36.35C348.04,-37.72 359.51,-39.16 370.5,-40.54"/>
<polygon fill="midnightblue" stroke="midnightblue" points="370.08,-44.01 380.44,-41.78 370.95,-37.07 370.08,-44.01"/>
</g>
<!-- Node6 -->
<g id="node6" class="node">
<title>Node6</title>
<g id="a_node6"><a target="_blank" xlink:href="http://en.cppreference.com/w/cpp/container/vector/push_back.html#" xlink:title=" ">
<polygon fill="white" stroke="black" points="373,-0.5 373,-19.5 489,-19.5 489,-0.5 373,-0.5"/>
<text text-anchor="middle" x="431" y="-7.5" font-family="Helvetica,sans-Serif" font-size="10.00">std::vector::push_back</text>
</a>
</g>
</g>
<!-- Node4&#45;&gt;Node6 -->
<g id="edge5" class="edge">
<title>Node4&#45;&gt;Node6</title>
<path fill="none" stroke="midnightblue" d="M337.07,-21.65C345.36,-20.61 353.94,-19.54 362.38,-18.48"/>
<polygon fill="midnightblue" stroke="midnightblue" points="363.09,-21.92 372.58,-17.2 362.22,-14.97 363.09,-21.92"/>
</g>
</g>
</svg>
