<?xml version="1.0" encoding="UTF-8" standalone="no"?>
<!DOCTYPE svg PUBLIC "-//W3C//DTD SVG 1.1//EN"
 "http://www.w3.org/Graphics/SVG/1.1/DTD/svg11.dtd">
<!-- Generated by graphviz version 2.49.3 (20211023.0002)
 -->
<!-- Title: main Pages: 1 -->
<svg width="571pt" height="85pt"
 viewBox="0.00 0.00 571.00 85.00" xmlns="http://www.w3.org/2000/svg" xmlns:xlink="http://www.w3.org/1999/xlink">
<g id="graph0" class="graph" transform="scale(1 1) rotate(0) translate(4 81)">
<title>main</title>
<polygon fill="white" stroke="transparent" points="-4,4 -4,-81 567,-81 567,4 -4,4"/>
<!-- Node1 -->
<g id="node1" class="node">
<title>Node1</title>
<g id="a_node1"><a xlink:title="Main function.">
<polygon fill="#bfbfbf" stroke="black" points="0,-38.5 0,-57.5 38,-57.5 38,-38.5 0,-38.5"/>
<text text-anchor="middle" x="19" y="-45.5" font-family="Helvetica,sans-Serif" font-size="10.00">main</text>
</a>
</g>
</g>
<!-- Node2 -->
<g id="node2" class="node">
<title>Node2</title>
<g id="a_node2"><a xlink:href="../../df/d2e/quine__mccluskey_8cpp.html#aa8dca7b867074164d5f45b0f3851269d" target="_top" xlink:title="Self&#45;test implementations.">
<polygon fill="white" stroke="black" points="74,-38.5 74,-57.5 107,-57.5 107,-38.5 74,-38.5"/>
<text text-anchor="middle" x="90.5" y="-45.5" font-family="Helvetica,sans-Serif" font-size="10.00">test</text>
</a>
</g>
</g>
<!-- Node1&#45;&gt;Node2 -->
<g id="edge1" class="edge">
<title>Node1&#45;&gt;Node2</title>
<path fill="none" stroke="midnightblue" d="M38.26,-48C46.07,-48 55.31,-48 63.79,-48"/>
<polygon fill="midnightblue" stroke="midnightblue" points="63.95,-51.5 73.95,-48 63.95,-44.5 63.95,-51.5"/>
</g>
<!-- Node3 -->
<g id="node3" class="node">
<title>Node3</title>
<g id="a_node3"><a target="_blank" xlink:href="http://en.cppreference.com/w/cpp/string/basic_string/compare.html#" xlink:title=" ">
<polygon fill="white" stroke="black" points="147.5,-57.5 147.5,-76.5 251.5,-76.5 251.5,-57.5 147.5,-57.5"/>
<text text-anchor="middle" x="199.5" y="-64.5" font-family="Helvetica,sans-Serif" font-size="10.00">std::string::compare</text>
</a>
</g>
</g>
<!-- Node2&#45;&gt;Node3 -->
<g id="edge2" class="edge">
<title>Node2&#45;&gt;Node3</title>
<path fill="none" stroke="midnightblue" d="M107.29,-50.8C115.56,-52.27 126.28,-54.18 137.45,-56.16"/>
<polygon fill="midnightblue" stroke="midnightblue" points="136.87,-59.61 147.33,-57.91 138.1,-52.72 136.87,-59.61"/>
</g>
<!-- Node4 -->
<g id="node4" class="node">
<title>Node4</title>
<g id="a_node4"><a xlink:href="../../d9/de1/class_mc_cluskey.html#ac3e85501476e89d34c14af1b3ddb0f9a" target="_top" xlink:title="execution function">
<polygon fill="white" stroke="black" points="143,-19.5 143,-38.5 256,-38.5 256,-19.5 143,-19.5"/>
<text text-anchor="middle" x="199.5" y="-26.5" font-family="Helvetica,sans-Serif" font-size="10.00">McCluskey::quineExe</text>
</a>
</g>
</g>
<!-- Node2&#45;&gt;Node4 -->
<g id="edge3" class="edge">
<title>Node2&#45;&gt;Node4</title>
<path fill="none" stroke="midnightblue" d="M107.29,-45.2C114.95,-43.84 124.72,-42.1 135,-40.28"/>
<polygon fill="midnightblue" stroke="midnightblue" points="135.72,-43.7 144.96,-38.51 134.5,-36.81 135.72,-43.7"/>
</g>
<!-- Node5 -->
<g id="node5" class="node">
<title>Node5</title>
<g id="a_node5"><a xlink:href="../../d9/de1/class_mc_cluskey.html#ae80ae7273e5e62af9c6ebe7cac25e545" target="_top" xlink:title="This is a function that receives a number from 0 to 15, creates a node, and adds it to the vector....">
<polygon fill="white" stroke="black" points="292,-19.5 292,-38.5 410,-38.5 410,-19.5 292,-19.5"/>
<text text-anchor="middle" x="351" y="-26.5" font-family="Helvetica,sans-Serif" font-size="10.00">McCluskey::selectNum</text>
</a>
</g>
</g>
<!-- Node4&#45;&gt;Node5 -->
<g id="edge4" class="edge">
<title>Node4&#45;&gt;Node5</title>
<path fill="none" stroke="midnightblue" d="M256.17,-29C264.43,-29 273.03,-29 281.52,-29"/>
<polygon fill="midnightblue" stroke="midnightblue" points="281.78,-32.5 291.78,-29 281.78,-25.5 281.78,-32.5"/>
</g>
<!-- Node6 -->
<g id="node6" class="node">
<title>Node6</title>
<g id="a_node6"><a xlink:href="../../d9/de1/class_mc_cluskey.html#ade670fff7c8f07a9698d34c56c370c69" target="_top" xlink:title="function that counts the number of 1">
<polygon fill="white" stroke="black" points="454,-38.5 454,-57.5 555,-57.5 555,-38.5 454,-38.5"/>
<text text-anchor="middle" x="504.5" y="-45.5" font-family="Helvetica,sans-Serif" font-size="10.00">McCluskey::count1</text>
</a>
</g>
</g>
<!-- Node5&#45;&gt;Node6 -->
<g id="edge5" class="edge">
<title>Node5&#45;&gt;Node6</title>
<path fill="none" stroke="midnightblue" d="M410.14,-36.29C421.13,-37.67 432.64,-39.11 443.68,-40.5"/>
<polygon fill="midnightblue" stroke="midnightblue" points="443.3,-43.98 453.66,-41.75 444.17,-37.03 443.3,-43.98"/>
</g>
<!-- Node7 -->
<g id="node7" class="node">
<title>Node7</title>
<g id="a_node7"><a target="_blank" xlink:href="http://en.cppreference.com/w/cpp/container/vector/push_back.html#" xlink:title=" ">
<polygon fill="white" stroke="black" points="446,-0.5 446,-19.5 563,-19.5 563,-0.5 446,-0.5"/>
<text text-anchor="middle" x="504.5" y="-7.5" font-family="Helvetica,sans-Serif" font-size="10.00">std::vector::push_back</text>
</a>
</g>
</g>
<!-- Node5&#45;&gt;Node7 -->
<g id="edge6" class="edge">
<title>Node5&#45;&gt;Node7</title>
<path fill="none" stroke="midnightblue" d="M410.14,-21.71C418.54,-20.66 427.24,-19.56 435.8,-18.49"/>
<polygon fill="midnightblue" stroke="midnightblue" points="436.28,-21.96 445.77,-17.24 435.41,-15.01 436.28,-21.96"/>
</g>
</g>
</svg>
