<?xml version="1.0" encoding="UTF-8" standalone="no"?>
<!DOCTYPE svg PUBLIC "-//W3C//DTD SVG 1.1//EN"
 "http://www.w3.org/Graphics/SVG/1.1/DTD/svg11.dtd">
<!-- Generated by graphviz version 2.49.3 (20211023.0002)
 -->
<!-- Title: McCluskey::selectNum Pages: 1 -->
<svg width="279pt" height="66pt"
 viewBox="0.00 0.00 279.00 66.00" xmlns="http://www.w3.org/2000/svg" xmlns:xlink="http://www.w3.org/1999/xlink">
<g id="graph0" class="graph" transform="scale(1 1) rotate(0) translate(4 62)">
<title>McCluskey::selectNum</title>
<polygon fill="white" stroke="transparent" points="-4,4 -4,-62 275,-62 275,4 -4,4"/>
<!-- Node1 -->
<g id="node1" class="node">
<title>Node1</title>
<g id="a_node1"><a xlink:title="This is a function that receives a number from 0 to 15, creates a node, and adds it to the vector....">
<polygon fill="#bfbfbf" stroke="black" points="0,-19.5 0,-38.5 118,-38.5 118,-19.5 0,-19.5"/>
<text text-anchor="middle" x="59" y="-26.5" font-family="Helvetica,sans-Serif" font-size="10.00">McCluskey::selectNum</text>
</a>
</g>
</g>
<!-- Node2 -->
<g id="node2" class="node">
<title>Node2</title>
<g id="a_node2"><a xlink:href="../../d9/de1/class_mc_cluskey.html#aa9dffa96d75218e361296745f5be3b9a" target="_top" xlink:title="function that counts the number of 1">
<polygon fill="white" stroke="black" points="162,-38.5 162,-57.5 263,-57.5 263,-38.5 162,-38.5"/>
<text text-anchor="middle" x="212.5" y="-45.5" font-family="Helvetica,sans-Serif" font-size="10.00">McCluskey::count1</text>
</a>
</g>
</g>
<!-- Node1&#45;&gt;Node2 -->
<g id="edge1" class="edge">
<title>Node1&#45;&gt;Node2</title>
<path fill="none" stroke="midnightblue" d="M118.14,-36.29C129.13,-37.67 140.64,-39.11 151.68,-40.5"/>
<polygon fill="midnightblue" stroke="midnightblue" points="151.3,-43.98 161.66,-41.75 152.17,-37.03 151.3,-43.98"/>
</g>
<!-- Node3 -->
<g id="node3" class="node">
<title>Node3</title>
<g id="a_node3"><a target="_blank" xlink:href="http://en.cppreference.com/w/cpp/container/vector/push_back.html#" xlink:title=" ">
<polygon fill="white" stroke="black" points="154,-0.5 154,-19.5 271,-19.5 271,-0.5 154,-0.5"/>
<text text-anchor="middle" x="212.5" y="-7.5" font-family="Helvetica,sans-Serif" font-size="10.00">std::vector::push_back</text>
</a>
</g>
</g>
<!-- Node1&#45;&gt;Node3 -->
<g id="edge2" class="edge">
<title>Node1&#45;&gt;Node3</title>
<path fill="none" stroke="midnightblue" d="M118.14,-21.71C126.54,-20.66 135.24,-19.56 143.8,-18.49"/>
<polygon fill="midnightblue" stroke="midnightblue" points="144.28,-21.96 153.77,-17.24 143.41,-15.01 144.28,-21.96"/>
</g>
</g>
</svg>
