<?xml version="1.0" encoding="UTF-8" standalone="no"?>
<!DOCTYPE svg PUBLIC "-//W3C//DTD SVG 1.1//EN"
 "http://www.w3.org/Graphics/SVG/1.1/DTD/svg11.dtd">
<!-- Generated by graphviz version 2.49.3 (20211023.0002)
 -->
<!-- Title: McCluskey::findEpi Pages: 1 -->
<svg width="263pt" height="218pt"
 viewBox="0.00 0.00 263.00 218.00" xmlns="http://www.w3.org/2000/svg" xmlns:xlink="http://www.w3.org/1999/xlink">
<g id="graph0" class="graph" transform="scale(1 1) rotate(0) translate(4 214)">
<title>McCluskey::findEpi</title>
<polygon fill="white" stroke="transparent" points="-4,4 -4,-214 259,-214 259,4 -4,4"/>
<!-- Node1 -->
<g id="node1" class="node">
<title>Node1</title>
<g id="a_node1"><a xlink:title="function that finds and returns epi">
<polygon fill="#bfbfbf" stroke="black" points="0,-95.5 0,-114.5 102,-114.5 102,-95.5 0,-95.5"/>
<text text-anchor="middle" x="51" y="-102.5" font-family="Helvetica,sans-Serif" font-size="10.00">McCluskey::findEpi</text>
</a>
</g>
</g>
<!-- Node2 -->
<g id="node2" class="node">
<title>Node2</title>
<g id="a_node2"><a target="_blank" xlink:href="http://en.cppreference.com/w/cpp/container/vector/begin.html#" xlink:title=" ">
<polygon fill="white" stroke="black" points="150,-190.5 150,-209.5 243,-209.5 243,-190.5 150,-190.5"/>
<text text-anchor="middle" x="196.5" y="-197.5" font-family="Helvetica,sans-Serif" font-size="10.00">std::vector::begin</text>
</a>
</g>
</g>
<!-- Node1&#45;&gt;Node2 -->
<g id="edge1" class="edge">
<title>Node1&#45;&gt;Node2</title>
<path fill="none" stroke="midnightblue" d="M60.33,-114.54C74.7,-130.44 105.69,-162.44 138,-181 141.64,-183.09 145.55,-184.99 149.54,-186.71"/>
<polygon fill="midnightblue" stroke="midnightblue" points="148.37,-190.01 158.96,-190.4 150.92,-183.49 148.37,-190.01"/>
</g>
<!-- Node3 -->
<g id="node3" class="node">
<title>Node3</title>
<g id="a_node3"><a target="_blank" xlink:href="http://en.cppreference.com/w/cpp/container/vector/erase.html#" xlink:title=" ">
<polygon fill="white" stroke="black" points="150,-152.5 150,-171.5 243,-171.5 243,-152.5 150,-152.5"/>
<text text-anchor="middle" x="196.5" y="-159.5" font-family="Helvetica,sans-Serif" font-size="10.00">std::vector::erase</text>
</a>
</g>
</g>
<!-- Node1&#45;&gt;Node3 -->
<g id="edge2" class="edge">
<title>Node1&#45;&gt;Node3</title>
<path fill="none" stroke="midnightblue" d="M72.27,-114.62C89.55,-122.67 115.15,-134.2 138,-143 143.53,-145.13 149.41,-147.24 155.23,-149.24"/>
<polygon fill="midnightblue" stroke="midnightblue" points="154.27,-152.62 164.87,-152.49 156.51,-145.98 154.27,-152.62"/>
</g>
<!-- Node4 -->
<g id="node4" class="node">
<title>Node4</title>
<g id="a_node4"><a target="_blank" xlink:href="http://en.cppreference.com/w/cpp/string/byte/memset.html#" xlink:title=" ">
<polygon fill="white" stroke="black" points="161,-114.5 161,-133.5 232,-133.5 232,-114.5 161,-114.5"/>
<text text-anchor="middle" x="196.5" y="-121.5" font-family="Helvetica,sans-Serif" font-size="10.00">std::memset</text>
</a>
</g>
</g>
<!-- Node1&#45;&gt;Node4 -->
<g id="edge3" class="edge">
<title>Node1&#45;&gt;Node4</title>
<path fill="none" stroke="midnightblue" d="M102.19,-111.65C117.95,-113.73 135.24,-116.02 150.61,-118.06"/>
<polygon fill="midnightblue" stroke="midnightblue" points="150.53,-121.58 160.9,-119.42 151.45,-114.64 150.53,-121.58"/>
</g>
<!-- Node5 -->
<g id="node5" class="node">
<title>Node5</title>
<g id="a_node5"><a target="_blank" xlink:href="http://en.cppreference.com/w/cpp/container/vector/push_back.html#" xlink:title=" ">
<polygon fill="white" stroke="black" points="138,-76.5 138,-95.5 255,-95.5 255,-76.5 138,-76.5"/>
<text text-anchor="middle" x="196.5" y="-83.5" font-family="Helvetica,sans-Serif" font-size="10.00">std::vector::push_back</text>
</a>
</g>
</g>
<!-- Node1&#45;&gt;Node5 -->
<g id="edge4" class="edge">
<title>Node1&#45;&gt;Node5</title>
<path fill="none" stroke="midnightblue" d="M102.19,-98.35C110.44,-97.26 119.11,-96.11 127.7,-94.98"/>
<polygon fill="midnightblue" stroke="midnightblue" points="128.27,-98.43 137.72,-93.65 127.35,-91.49 128.27,-98.43"/>
</g>
<!-- Node6 -->
<g id="node6" class="node">
<title>Node6</title>
<g id="a_node6"><a target="_blank" xlink:href="http://en.cppreference.com/w/cpp/container/vector/size.html#" xlink:title=" ">
<polygon fill="white" stroke="black" points="153.5,-38.5 153.5,-57.5 239.5,-57.5 239.5,-38.5 153.5,-38.5"/>
<text text-anchor="middle" x="196.5" y="-45.5" font-family="Helvetica,sans-Serif" font-size="10.00">std::vector::size</text>
</a>
</g>
</g>
<!-- Node1&#45;&gt;Node6 -->
<g id="edge5" class="edge">
<title>Node1&#45;&gt;Node6</title>
<path fill="none" stroke="midnightblue" d="M72.27,-95.38C89.55,-87.33 115.15,-75.8 138,-67 143.53,-64.87 149.41,-62.76 155.23,-60.76"/>
<polygon fill="midnightblue" stroke="midnightblue" points="156.51,-64.02 164.87,-57.51 154.27,-57.38 156.51,-64.02"/>
</g>
<!-- Node7 -->
<g id="node7" class="node">
<title>Node7</title>
<g id="a_node7"><a target="_blank" xlink:href="http://en.cppreference.com/w/cpp/algorithm/sort.html#" xlink:title=" ">
<polygon fill="white" stroke="black" points="170.5,-0.5 170.5,-19.5 222.5,-19.5 222.5,-0.5 170.5,-0.5"/>
<text text-anchor="middle" x="196.5" y="-7.5" font-family="Helvetica,sans-Serif" font-size="10.00">std::sort</text>
</a>
</g>
</g>
<!-- Node1&#45;&gt;Node7 -->
<g id="edge6" class="edge">
<title>Node1&#45;&gt;Node7</title>
<path fill="none" stroke="midnightblue" d="M60.33,-95.46C74.7,-79.56 105.69,-47.56 138,-29 144.99,-24.99 152.94,-21.67 160.66,-19"/>
<polygon fill="midnightblue" stroke="midnightblue" points="161.76,-22.32 170.22,-15.95 159.63,-15.65 161.76,-22.32"/>
</g>
</g>
</svg>
