<?xml version="1.0" encoding="UTF-8" standalone="no"?>
<!DOCTYPE svg PUBLIC "-//W3C//DTD SVG 1.1//EN"
 "http://www.w3.org/Graphics/SVG/1.1/DTD/svg11.dtd">
<!-- Generated by graphviz version 2.49.3 (20211023.0002)
 -->
<!-- Title: McCluskey::selectNum Pages: 1 -->
<svg width="279pt" height="104pt"
 viewBox="0.00 0.00 279.00 104.00" xmlns="http://www.w3.org/2000/svg" xmlns:xlink="http://www.w3.org/1999/xlink">
<g id="graph0" class="graph" transform="scale(1 1) rotate(0) translate(4 100)">
<title>McCluskey::selectNum</title>
<polygon fill="white" stroke="transparent" points="-4,4 -4,-100 275,-100 275,4 -4,4"/>
<!-- Node1 -->
<g id="node1" class="node">
<title>Node1</title>
<g id="a_node1"><a xlink:title="This is a function that receives a number from 0 to 15, creates a node, and adds it to the vector.">
<polygon fill="#bfbfbf" stroke="black" points="0,-38.5 0,-57.5 118,-57.5 118,-38.5 0,-38.5"/>
<text text-anchor="middle" x="59" y="-45.5" font-family="Helvetica,sans-Serif" font-size="10.00">McCluskey::selectNum</text>
</a>
</g>
</g>
<!-- Node2 -->
<g id="node2" class="node">
<title>Node2</title>
<g id="a_node2"><a xlink:href="../../d9/de1/class_mc_cluskey.html#ade670fff7c8f07a9698d34c56c370c69" target="_top" xlink:title="function that counts the number of 1">
<polygon fill="white" stroke="black" points="162,-76.5 162,-95.5 263,-95.5 263,-76.5 162,-76.5"/>
<text text-anchor="middle" x="212.5" y="-83.5" font-family="Helvetica,sans-Serif" font-size="10.00">McCluskey::count1</text>
</a>
</g>
</g>
<!-- Node1&#45;&gt;Node2 -->
<g id="edge1" class="edge">
<title>Node1&#45;&gt;Node2</title>
<path fill="none" stroke="midnightblue" d="M98.23,-57.59C118.13,-62.58 142.66,-68.73 163.79,-74.03"/>
<polygon fill="midnightblue" stroke="midnightblue" points="162.99,-77.44 173.55,-76.48 164.7,-70.65 162.99,-77.44"/>
</g>
<!-- Node3 -->
<g id="node3" class="node">
<title>Node3</title>
<g id="a_node3"><a target="_blank" xlink:href="http://en.cppreference.com/w/cpp/io/c/fgetc.html#" xlink:title=" ">
<polygon fill="white" stroke="black" points="185.5,-38.5 185.5,-57.5 239.5,-57.5 239.5,-38.5 185.5,-38.5"/>
<text text-anchor="middle" x="212.5" y="-45.5" font-family="Helvetica,sans-Serif" font-size="10.00">std::getc</text>
</a>
</g>
</g>
<!-- Node1&#45;&gt;Node3 -->
<g id="edge2" class="edge">
<title>Node1&#45;&gt;Node3</title>
<path fill="none" stroke="midnightblue" d="M118.14,-48C137.35,-48 158.16,-48 175.25,-48"/>
<polygon fill="midnightblue" stroke="midnightblue" points="175.36,-51.5 185.36,-48 175.36,-44.5 175.36,-51.5"/>
</g>
<!-- Node4 -->
<g id="node4" class="node">
<title>Node4</title>
<g id="a_node4"><a target="_blank" xlink:href="http://en.cppreference.com/w/cpp/container/vector/push_back.html#" xlink:title=" ">
<polygon fill="white" stroke="black" points="154,-0.5 154,-19.5 271,-19.5 271,-0.5 154,-0.5"/>
<text text-anchor="middle" x="212.5" y="-7.5" font-family="Helvetica,sans-Serif" font-size="10.00">std::vector::push_back</text>
</a>
</g>
</g>
<!-- Node1&#45;&gt;Node4 -->
<g id="edge3" class="edge">
<title>Node1&#45;&gt;Node4</title>
<path fill="none" stroke="midnightblue" d="M98.23,-38.41C118.13,-33.42 142.66,-27.27 163.79,-21.97"/>
<polygon fill="midnightblue" stroke="midnightblue" points="164.7,-25.35 173.55,-19.52 162.99,-18.56 164.7,-25.35"/>
</g>
</g>
</svg>
