<?xml version="1.0" encoding="UTF-8" standalone="no"?>
<!DOCTYPE svg PUBLIC "-//W3C//DTD SVG 1.1//EN"
 "http://www.w3.org/Graphics/SVG/1.1/DTD/svg11.dtd">
<!-- Generated by graphviz version 2.50.0 (20211204.2007)
 -->
<!-- Title: McCluskey::findEpi Pages: 1 -->
<svg width="262pt" height="180pt"
 viewBox="0.00 0.00 262.00 180.00" xmlns="http://www.w3.org/2000/svg" xmlns:xlink="http://www.w3.org/1999/xlink">
<g id="graph0" class="graph" transform="scale(1 1) rotate(0) translate(4 176)">
<title>McCluskey::findEpi</title>
<polygon fill="white" stroke="transparent" points="-4,4 -4,-176 258,-176 258,4 -4,4"/>
<!-- Node1 -->
<g id="node1" class="node">
<title>Node1</title>
<g id="a_node1"><a xlink:title="function that finds and returns epi">
<polygon fill="#bfbfbf" stroke="black" points="0,-76.5 0,-95.5 102,-95.5 102,-76.5 0,-76.5"/>
<text text-anchor="middle" x="51" y="-83.5" font-family="Helvetica,sans-Serif" font-size="10.00">McCluskey::findEpi</text>
</a>
</g>
</g>
<!-- Node2 -->
<g id="node2" class="node">
<title>Node2</title>
<g id="a_node2"><a target="_blank" xlink:href="http://en.cppreference.com/w/cpp/container/vector/begin.html#" xlink:title=" ">
<polygon fill="white" stroke="black" points="150,-152.5 150,-171.5 242,-171.5 242,-152.5 150,-152.5"/>
<text text-anchor="middle" x="196" y="-159.5" font-family="Helvetica,sans-Serif" font-size="10.00">std::vector::begin</text>
</a>
</g>
</g>
<!-- Node1&#45;&gt;Node2 -->
<g id="edge1" class="edge">
<title>Node1&#45;&gt;Node2</title>
<path fill="none" stroke="midnightblue" d="M64.19,-95.59C80.32,-107.92 109.98,-129.34 138,-143 142.4,-145.14 147.1,-147.14 151.84,-148.97"/>
<polygon fill="midnightblue" stroke="midnightblue" points="150.96,-152.37 161.56,-152.49 153.35,-145.79 150.96,-152.37"/>
</g>
<!-- Node3 -->
<g id="node3" class="node">
<title>Node3</title>
<g id="a_node3"><a target="_blank" xlink:href="http://en.cppreference.com/w/cpp/container/vector/clear.html#" xlink:title=" ">
<polygon fill="white" stroke="black" points="151,-114.5 151,-133.5 241,-133.5 241,-114.5 151,-114.5"/>
<text text-anchor="middle" x="196" y="-121.5" font-family="Helvetica,sans-Serif" font-size="10.00">std::vector::clear</text>
</a>
</g>
</g>
<!-- Node1&#45;&gt;Node3 -->
<g id="edge2" class="edge">
<title>Node1&#45;&gt;Node3</title>
<path fill="none" stroke="midnightblue" d="M88.08,-95.59C106.63,-100.52 129.43,-106.57 149.2,-111.83"/>
<polygon fill="midnightblue" stroke="midnightblue" points="148.36,-115.23 158.93,-114.41 150.16,-108.46 148.36,-115.23"/>
</g>
<!-- Node4 -->
<g id="node4" class="node">
<title>Node4</title>
<g id="a_node4"><a target="_blank" xlink:href="http://en.cppreference.com/w/cpp/container/vector/erase.html#" xlink:title=" ">
<polygon fill="white" stroke="black" points="149.5,-76.5 149.5,-95.5 242.5,-95.5 242.5,-76.5 149.5,-76.5"/>
<text text-anchor="middle" x="196" y="-83.5" font-family="Helvetica,sans-Serif" font-size="10.00">std::vector::erase</text>
</a>
</g>
</g>
<!-- Node1&#45;&gt;Node4 -->
<g id="edge3" class="edge">
<title>Node1&#45;&gt;Node4</title>
<path fill="none" stroke="midnightblue" d="M102.01,-86C113.97,-86 126.81,-86 139.01,-86"/>
<polygon fill="midnightblue" stroke="midnightblue" points="139.08,-89.5 149.08,-86 139.08,-82.5 139.08,-89.5"/>
</g>
<!-- Node5 -->
<g id="node5" class="node">
<title>Node5</title>
<g id="a_node5"><a target="_blank" xlink:href="http://en.cppreference.com/w/cpp/container/vector/push_back.html#" xlink:title=" ">
<polygon fill="white" stroke="black" points="138,-38.5 138,-57.5 254,-57.5 254,-38.5 138,-38.5"/>
<text text-anchor="middle" x="196" y="-45.5" font-family="Helvetica,sans-Serif" font-size="10.00">std::vector::push_back</text>
</a>
</g>
</g>
<!-- Node1&#45;&gt;Node5 -->
<g id="edge4" class="edge">
<title>Node1&#45;&gt;Node5</title>
<path fill="none" stroke="midnightblue" d="M88.08,-76.41C106.63,-71.48 129.43,-65.43 149.2,-60.17"/>
<polygon fill="midnightblue" stroke="midnightblue" points="150.16,-63.54 158.93,-57.59 148.36,-56.77 150.16,-63.54"/>
</g>
<!-- Node6 -->
<g id="node6" class="node">
<title>Node6</title>
<g id="a_node6"><a target="_blank" xlink:href="http://en.cppreference.com/w/cpp/container/vector/size.html#" xlink:title=" ">
<polygon fill="white" stroke="black" points="152.5,-0.5 152.5,-19.5 239.5,-19.5 239.5,-0.5 152.5,-0.5"/>
<text text-anchor="middle" x="196" y="-7.5" font-family="Helvetica,sans-Serif" font-size="10.00">std::vector::size</text>
</a>
</g>
</g>
<!-- Node1&#45;&gt;Node6 -->
<g id="edge5" class="edge">
<title>Node1&#45;&gt;Node6</title>
<path fill="none" stroke="midnightblue" d="M64.19,-76.41C80.32,-64.08 109.98,-42.66 138,-29 142.4,-26.86 147.1,-24.86 151.84,-23.03"/>
<polygon fill="midnightblue" stroke="midnightblue" points="153.35,-26.21 161.56,-19.51 150.96,-19.63 153.35,-26.21"/>
</g>
</g>
</svg>
