<?xml version="1.0" encoding="UTF-8" standalone="no"?>
<!DOCTYPE svg PUBLIC "-//W3C//DTD SVG 1.1//EN"
 "http://www.w3.org/Graphics/SVG/1.1/DTD/svg11.dtd">
<!-- Generated by graphviz version 2.50.0 (20211204.2007)
 -->
<!-- Title: McCluskey::mergingBit Pages: 1 -->
<svg width="283pt" height="180pt"
 viewBox="0.00 0.00 283.00 180.00" xmlns="http://www.w3.org/2000/svg" xmlns:xlink="http://www.w3.org/1999/xlink">
<g id="graph0" class="graph" transform="scale(1 1) rotate(0) translate(4 176)">
<title>McCluskey::mergingBit</title>
<polygon fill="white" stroke="transparent" points="-4,4 -4,-176 279,-176 279,4 -4,4"/>
<!-- Node1 -->
<g id="node1" class="node">
<title>Node1</title>
<g id="a_node1"><a xlink:title="function that combines two nodes">
<polygon fill="#bfbfbf" stroke="black" points="0,-76.5 0,-95.5 119,-95.5 119,-76.5 0,-76.5"/>
<text text-anchor="middle" x="59.5" y="-83.5" font-family="Helvetica,sans-Serif" font-size="10.00">McCluskey::mergingBit</text>
</a>
</g>
</g>
<!-- Node2 -->
<g id="node2" class="node">
<title>Node2</title>
<g id="a_node2"><a xlink:href="../../d9/de1/class_mc_cluskey.html#a99f36c7ec89a9bd6d087fc652c9a9ba5" target="_top" xlink:title="If there is only one bit difference among the two nodes, a function to know the bit position.">
<polygon fill="white" stroke="black" points="157,-152.5 157,-171.5 273,-171.5 273,-152.5 157,-152.5"/>
<text text-anchor="middle" x="215" y="-159.5" font-family="Helvetica,sans-Serif" font-size="10.00">McCluskey::bitposition</text>
</a>
</g>
</g>
<!-- Node1&#45;&gt;Node2 -->
<g id="edge1" class="edge">
<title>Node1&#45;&gt;Node2</title>
<path fill="none" stroke="midnightblue" d="M74.04,-95.55C91.91,-107.82 124.66,-129.19 155,-143 159.77,-145.17 164.87,-147.21 169.99,-149.08"/>
<polygon fill="midnightblue" stroke="midnightblue" points="169.2,-152.51 179.79,-152.46 171.49,-145.89 169.2,-152.51"/>
</g>
<!-- Node3 -->
<g id="node3" class="node">
<title>Node3</title>
<g id="a_node3"><a xlink:href="../../d9/de1/class_mc_cluskey.html#a2ecc243d3f015b34bb741a995764d86b" target="_top" xlink:title="This function checks how many bits of two nodes are different.">
<polygon fill="white" stroke="black" points="155,-114.5 155,-133.5 275,-133.5 275,-114.5 155,-114.5"/>
<text text-anchor="middle" x="215" y="-121.5" font-family="Helvetica,sans-Serif" font-size="10.00">McCluskey::comparebit</text>
</a>
</g>
</g>
<!-- Node1&#45;&gt;Node3 -->
<g id="edge2" class="edge">
<title>Node1&#45;&gt;Node3</title>
<path fill="none" stroke="midnightblue" d="M99.23,-95.59C119.4,-100.58 144.25,-106.73 165.66,-112.03"/>
<polygon fill="midnightblue" stroke="midnightblue" points="165,-115.47 175.54,-114.48 166.68,-108.68 165,-115.47"/>
</g>
<!-- Node4 -->
<g id="node4" class="node">
<title>Node4</title>
<g id="a_node4"><a xlink:href="../../d9/de1/class_mc_cluskey.html#ade670fff7c8f07a9698d34c56c370c69" target="_top" xlink:title="function that counts the number of 1">
<polygon fill="white" stroke="black" points="164.5,-76.5 164.5,-95.5 265.5,-95.5 265.5,-76.5 164.5,-76.5"/>
<text text-anchor="middle" x="215" y="-83.5" font-family="Helvetica,sans-Serif" font-size="10.00">McCluskey::count1</text>
</a>
</g>
</g>
<!-- Node1&#45;&gt;Node4 -->
<g id="edge3" class="edge">
<title>Node1&#45;&gt;Node4</title>
<path fill="none" stroke="midnightblue" d="M119.41,-86C130.8,-86 142.75,-86 154.17,-86"/>
<polygon fill="midnightblue" stroke="midnightblue" points="154.48,-89.5 164.48,-86 154.48,-82.5 154.48,-89.5"/>
</g>
<!-- Node5 -->
<g id="node5" class="node">
<title>Node5</title>
<g id="a_node5"><a target="_blank" xlink:href="http://en.cppreference.com/w/cpp/container/vector/push_back.html#" xlink:title=" ">
<polygon fill="white" stroke="black" points="157,-38.5 157,-57.5 273,-57.5 273,-38.5 157,-38.5"/>
<text text-anchor="middle" x="215" y="-45.5" font-family="Helvetica,sans-Serif" font-size="10.00">std::vector::push_back</text>
</a>
</g>
</g>
<!-- Node1&#45;&gt;Node5 -->
<g id="edge4" class="edge">
<title>Node1&#45;&gt;Node5</title>
<path fill="none" stroke="midnightblue" d="M99.23,-76.41C119.4,-71.42 144.25,-65.27 165.66,-59.97"/>
<polygon fill="midnightblue" stroke="midnightblue" points="166.68,-63.32 175.54,-57.52 165,-56.53 166.68,-63.32"/>
</g>
<!-- Node6 -->
<g id="node6" class="node">
<title>Node6</title>
<g id="a_node6"><a target="_blank" xlink:href="http://en.cppreference.com/w/cpp/container/vector/size.html#" xlink:title=" ">
<polygon fill="white" stroke="black" points="171.5,-0.5 171.5,-19.5 258.5,-19.5 258.5,-0.5 171.5,-0.5"/>
<text text-anchor="middle" x="215" y="-7.5" font-family="Helvetica,sans-Serif" font-size="10.00">std::vector::size</text>
</a>
</g>
</g>
<!-- Node1&#45;&gt;Node6 -->
<g id="edge5" class="edge">
<title>Node1&#45;&gt;Node6</title>
<path fill="none" stroke="midnightblue" d="M74.04,-76.45C91.91,-64.18 124.66,-42.81 155,-29 159.77,-26.83 164.87,-24.79 169.99,-22.92"/>
<polygon fill="midnightblue" stroke="midnightblue" points="171.49,-26.11 179.79,-19.54 169.2,-19.49 171.49,-26.11"/>
</g>
</g>
</svg>
