<?xml version="1.0" encoding="UTF-8" standalone="no"?>
<!DOCTYPE svg PUBLIC "-//W3C//DTD SVG 1.1//EN"
 "http://www.w3.org/Graphics/SVG/1.1/DTD/svg11.dtd">
<!-- Generated by graphviz version 2.49.3 (20211023.0002)
 -->
<!-- Title: McCluskey::delNotPi Pages: 1 -->
<svg width="259pt" height="142pt"
 viewBox="0.00 0.00 259.00 142.00" xmlns="http://www.w3.org/2000/svg" xmlns:xlink="http://www.w3.org/1999/xlink">
<g id="graph0" class="graph" transform="scale(1 1) rotate(0) translate(4 138)">
<title>McCluskey::delNotPi</title>
<polygon fill="white" stroke="transparent" points="-4,4 -4,-138 255,-138 255,4 -4,4"/>
<!-- Node1 -->
<g id="node1" class="node">
<title>Node1</title>
<g id="a_node1"><a xlink:title="Function to delete if term is not pi.">
<polygon fill="#bfbfbf" stroke="black" points="0,-57.5 0,-76.5 109,-76.5 109,-57.5 0,-57.5"/>
<text text-anchor="middle" x="54.5" y="-64.5" font-family="Helvetica,sans-Serif" font-size="10.00">McCluskey::delNotPi</text>
</a>
</g>
</g>
<!-- Node2 -->
<g id="node2" class="node">
<title>Node2</title>
<g id="a_node2"><a target="_blank" xlink:href="http://en.cppreference.com/w/cpp/container/vector/begin.html#" xlink:title=" ">
<polygon fill="white" stroke="black" points="151.5,-114.5 151.5,-133.5 244.5,-133.5 244.5,-114.5 151.5,-114.5"/>
<text text-anchor="middle" x="198" y="-121.5" font-family="Helvetica,sans-Serif" font-size="10.00">std::vector::begin</text>
</a>
</g>
</g>
<!-- Node1&#45;&gt;Node2 -->
<g id="edge1" class="edge">
<title>Node1&#45;&gt;Node2</title>
<path fill="none" stroke="midnightblue" d="M77.07,-76.53C95.12,-84.41 121.6,-95.77 145,-105 150.08,-107.01 155.48,-109.06 160.79,-111.04"/>
<polygon fill="midnightblue" stroke="midnightblue" points="159.59,-114.33 170.18,-114.5 162.01,-107.76 159.59,-114.33"/>
</g>
<!-- Node3 -->
<g id="node3" class="node">
<title>Node3</title>
<g id="a_node3"><a target="_blank" xlink:href="http://en.cppreference.com/w/cpp/container/vector/erase.html#" xlink:title=" ">
<polygon fill="white" stroke="black" points="151.5,-76.5 151.5,-95.5 244.5,-95.5 244.5,-76.5 151.5,-76.5"/>
<text text-anchor="middle" x="198" y="-83.5" font-family="Helvetica,sans-Serif" font-size="10.00">std::vector::erase</text>
</a>
</g>
</g>
<!-- Node1&#45;&gt;Node3 -->
<g id="edge2" class="edge">
<title>Node1&#45;&gt;Node3</title>
<path fill="none" stroke="midnightblue" d="M109.4,-74.24C119.71,-75.62 130.52,-77.07 140.9,-78.47"/>
<polygon fill="midnightblue" stroke="midnightblue" points="140.72,-81.97 151.1,-79.84 141.65,-75.04 140.72,-81.97"/>
</g>
<!-- Node4 -->
<g id="node4" class="node">
<title>Node4</title>
<g id="a_node4"><a xlink:href="../../d9/de1/class_mc_cluskey.html#a359be1debe7c492deb1bb565704842e1" target="_top" xlink:title="function that checks whether the selected number belongs to the next column">
<polygon fill="white" stroke="black" points="145,-38.5 145,-57.5 251,-57.5 251,-38.5 145,-38.5"/>
<text text-anchor="middle" x="198" y="-45.5" font-family="Helvetica,sans-Serif" font-size="10.00">McCluskey::selectPi</text>
</a>
</g>
</g>
<!-- Node1&#45;&gt;Node4 -->
<g id="edge3" class="edge">
<title>Node1&#45;&gt;Node4</title>
<path fill="none" stroke="midnightblue" d="M109.4,-59.76C117.62,-58.66 126.16,-57.51 134.54,-56.39"/>
<polygon fill="midnightblue" stroke="midnightblue" points="135.21,-59.83 144.65,-55.03 134.28,-52.89 135.21,-59.83"/>
</g>
<!-- Node5 -->
<g id="node5" class="node">
<title>Node5</title>
<g id="a_node5"><a target="_blank" xlink:href="http://en.cppreference.com/w/cpp/container/vector/size.html#" xlink:title=" ">
<polygon fill="white" stroke="black" points="155,-0.5 155,-19.5 241,-19.5 241,-0.5 155,-0.5"/>
<text text-anchor="middle" x="198" y="-7.5" font-family="Helvetica,sans-Serif" font-size="10.00">std::vector::size</text>
</a>
</g>
</g>
<!-- Node1&#45;&gt;Node5 -->
<g id="edge4" class="edge">
<title>Node1&#45;&gt;Node5</title>
<path fill="none" stroke="midnightblue" d="M77.07,-57.47C95.12,-49.59 121.6,-38.23 145,-29 150.08,-26.99 155.48,-24.94 160.79,-22.96"/>
<polygon fill="midnightblue" stroke="midnightblue" points="162.01,-26.24 170.18,-19.5 159.59,-19.67 162.01,-26.24"/>
</g>
</g>
</svg>
