<?xml version="1.0" encoding="UTF-8" standalone="no"?>
<!DOCTYPE svg PUBLIC "-//W3C//DTD SVG 1.1//EN"
 "http://www.w3.org/Graphics/SVG/1.1/DTD/svg11.dtd">
<!-- Generated by graphviz version 2.49.3 (20211023.0002)
 -->
<!-- Title: McCluskey::prettyprint Pages: 1 -->
<svg width="245pt" height="104pt"
 viewBox="0.00 0.00 245.00 104.00" xmlns="http://www.w3.org/2000/svg" xmlns:xlink="http://www.w3.org/1999/xlink">
<g id="graph0" class="graph" transform="scale(1 1) rotate(0) translate(4 100)">
<title>McCluskey::prettyprint</title>
<polygon fill="white" stroke="transparent" points="-4,4 -4,-100 241,-100 241,4 -4,4"/>
<!-- Node1 -->
<g id="node1" class="node">
<title>Node1</title>
<g id="a_node1"><a xlink:title="function for print">
<polygon fill="#bfbfbf" stroke="black" points="0,-38.5 0,-57.5 115,-57.5 115,-38.5 0,-38.5"/>
<text text-anchor="middle" x="57.5" y="-45.5" font-family="Helvetica,sans-Serif" font-size="10.00">McCluskey::prettyprint</text>
</a>
</g>
</g>
<!-- Node2 -->
<g id="node2" class="node">
<title>Node2</title>
<g id="a_node2"><a target="_blank" xlink:href="http://en.cppreference.com/w/cpp/algorithm/min.html#" xlink:title=" ">
<polygon fill="white" stroke="black" points="168,-76.5 168,-95.5 220,-95.5 220,-76.5 168,-76.5"/>
<text text-anchor="middle" x="194" y="-83.5" font-family="Helvetica,sans-Serif" font-size="10.00">std::min</text>
</a>
</g>
</g>
<!-- Node1&#45;&gt;Node2 -->
<g id="edge1" class="edge">
<title>Node1&#45;&gt;Node2</title>
<path fill="none" stroke="midnightblue" d="M92.44,-57.59C112.55,-63.27 137.96,-70.45 158.22,-76.17"/>
<polygon fill="midnightblue" stroke="midnightblue" points="157.41,-79.58 167.99,-78.93 159.32,-72.85 157.41,-79.58"/>
</g>
<!-- Node3 -->
<g id="node3" class="node">
<title>Node3</title>
<g id="a_node3"><a target="_blank" xlink:href="http://en.cppreference.com/w/cpp/io/c/fprintf.html#" xlink:title=" ">
<polygon fill="white" stroke="black" points="165,-38.5 165,-57.5 223,-57.5 223,-38.5 165,-38.5"/>
<text text-anchor="middle" x="194" y="-45.5" font-family="Helvetica,sans-Serif" font-size="10.00">std::printf</text>
</a>
</g>
</g>
<!-- Node1&#45;&gt;Node3 -->
<g id="edge2" class="edge">
<title>Node1&#45;&gt;Node3</title>
<path fill="none" stroke="midnightblue" d="M115.15,-48C128.37,-48 142.14,-48 154.37,-48"/>
<polygon fill="midnightblue" stroke="midnightblue" points="154.66,-51.5 164.66,-48 154.66,-44.5 154.66,-51.5"/>
</g>
<!-- Node4 -->
<g id="node4" class="node">
<title>Node4</title>
<g id="a_node4"><a target="_blank" xlink:href="http://en.cppreference.com/w/cpp/container/vector/size.html#" xlink:title=" ">
<polygon fill="white" stroke="black" points="151,-0.5 151,-19.5 237,-19.5 237,-0.5 151,-0.5"/>
<text text-anchor="middle" x="194" y="-7.5" font-family="Helvetica,sans-Serif" font-size="10.00">std::vector::size</text>
</a>
</g>
</g>
<!-- Node1&#45;&gt;Node4 -->
<g id="edge3" class="edge">
<title>Node1&#45;&gt;Node4</title>
<path fill="none" stroke="midnightblue" d="M92.44,-38.41C109.72,-33.53 130.93,-27.54 149.41,-22.32"/>
<polygon fill="midnightblue" stroke="midnightblue" points="150.4,-25.67 159.07,-19.59 148.5,-18.94 150.4,-25.67"/>
</g>
</g>
</svg>
