<?xml version="1.0" encoding="UTF-8" standalone="no"?>
<!DOCTYPE svg PUBLIC "-//W3C//DTD SVG 1.1//EN"
 "http://www.w3.org/Graphics/SVG/1.1/DTD/svg11.dtd">
<!-- Generated by graphviz version 2.49.3 (20211023.0002)
 -->
<!-- Title: McCluskey::findEpi Pages: 1 -->
<svg width="263pt" height="180pt"
 viewBox="0.00 0.00 263.00 180.00" xmlns="http://www.w3.org/2000/svg" xmlns:xlink="http://www.w3.org/1999/xlink">
<g id="graph0" class="graph" transform="scale(1 1) rotate(0) translate(4 176)">
<title>McCluskey::findEpi</title>
<polygon fill="white" stroke="transparent" points="-4,4 -4,-176 259,-176 259,4 -4,4"/>
<!-- Node1 -->
<g id="node1" class="node">
<title>Node1</title>
<g id="a_node1"><a xlink:title="function that finds and returns epi">
<polygon fill="#bfbfbf" stroke="black" points="0,-76.5 0,-95.5 102,-95.5 102,-76.5 0,-76.5"/>
<text text-anchor="middle" x="51" y="-83.5" font-family="Helvetica,sans-Serif" font-size="10.00">McCluskey::findEpi</text>
</a>
</g>
</g>
<!-- Node2 -->
<g id="node2" class="node">
<title>Node2</title>
<g id="a_node2"><a target="_blank" xlink:href="http://en.cppreference.com/w/cpp/container/vector/begin.html#" xlink:title=" ">
<polygon fill="white" stroke="black" points="150,-152.5 150,-171.5 243,-171.5 243,-152.5 150,-152.5"/>
<text text-anchor="middle" x="196.5" y="-159.5" font-family="Helvetica,sans-Serif" font-size="10.00">std::vector::begin</text>
</a>
</g>
</g>
<!-- Node1&#45;&gt;Node2 -->
<g id="edge1" class="edge">
<title>Node1&#45;&gt;Node2</title>
<path fill="none" stroke="midnightblue" d="M64.19,-95.61C80.31,-107.94 109.97,-129.38 138,-143 142.38,-145.13 147.06,-147.11 151.78,-148.92"/>
<polygon fill="midnightblue" stroke="midnightblue" points="150.87,-152.31 161.46,-152.41 153.24,-145.73 150.87,-152.31"/>
</g>
<!-- Node3 -->
<g id="node3" class="node">
<title>Node3</title>
<g id="a_node3"><a target="_blank" xlink:href="http://en.cppreference.com/w/cpp/container/vector/clear.html#" xlink:title=" ">
<polygon fill="white" stroke="black" points="151.5,-114.5 151.5,-133.5 241.5,-133.5 241.5,-114.5 151.5,-114.5"/>
<text text-anchor="middle" x="196.5" y="-121.5" font-family="Helvetica,sans-Serif" font-size="10.00">std::vector::clear</text>
</a>
</g>
</g>
<!-- Node1&#45;&gt;Node3 -->
<g id="edge2" class="edge">
<title>Node1&#45;&gt;Node3</title>
<path fill="none" stroke="midnightblue" d="M88.21,-95.59C106.82,-100.52 129.7,-106.57 149.54,-111.83"/>
<polygon fill="midnightblue" stroke="midnightblue" points="148.74,-115.24 159.3,-114.41 150.53,-108.47 148.74,-115.24"/>
</g>
<!-- Node4 -->
<g id="node4" class="node">
<title>Node4</title>
<g id="a_node4"><a target="_blank" xlink:href="http://en.cppreference.com/w/cpp/container/vector/erase.html#" xlink:title=" ">
<polygon fill="white" stroke="black" points="150,-76.5 150,-95.5 243,-95.5 243,-76.5 150,-76.5"/>
<text text-anchor="middle" x="196.5" y="-83.5" font-family="Helvetica,sans-Serif" font-size="10.00">std::vector::erase</text>
</a>
</g>
</g>
<!-- Node1&#45;&gt;Node4 -->
<g id="edge3" class="edge">
<title>Node1&#45;&gt;Node4</title>
<path fill="none" stroke="midnightblue" d="M102.19,-86C114.31,-86 127.34,-86 139.7,-86"/>
<polygon fill="midnightblue" stroke="midnightblue" points="139.9,-89.5 149.9,-86 139.9,-82.5 139.9,-89.5"/>
</g>
<!-- Node5 -->
<g id="node5" class="node">
<title>Node5</title>
<g id="a_node5"><a target="_blank" xlink:href="http://en.cppreference.com/w/cpp/container/vector/push_back.html#" xlink:title=" ">
<polygon fill="white" stroke="black" points="138,-38.5 138,-57.5 255,-57.5 255,-38.5 138,-38.5"/>
<text text-anchor="middle" x="196.5" y="-45.5" font-family="Helvetica,sans-Serif" font-size="10.00">std::vector::push_back</text>
</a>
</g>
</g>
<!-- Node1&#45;&gt;Node5 -->
<g id="edge4" class="edge">
<title>Node1&#45;&gt;Node5</title>
<path fill="none" stroke="midnightblue" d="M88.21,-76.41C106.82,-71.48 129.7,-65.43 149.54,-60.17"/>
<polygon fill="midnightblue" stroke="midnightblue" points="150.53,-63.53 159.3,-57.59 148.74,-56.76 150.53,-63.53"/>
</g>
<!-- Node6 -->
<g id="node6" class="node">
<title>Node6</title>
<g id="a_node6"><a target="_blank" xlink:href="http://en.cppreference.com/w/cpp/container/vector/size.html#" xlink:title=" ">
<polygon fill="white" stroke="black" points="153.5,-0.5 153.5,-19.5 239.5,-19.5 239.5,-0.5 153.5,-0.5"/>
<text text-anchor="middle" x="196.5" y="-7.5" font-family="Helvetica,sans-Serif" font-size="10.00">std::vector::size</text>
</a>
</g>
</g>
<!-- Node1&#45;&gt;Node6 -->
<g id="edge5" class="edge">
<title>Node1&#45;&gt;Node6</title>
<path fill="none" stroke="midnightblue" d="M64.19,-76.39C80.31,-64.06 109.97,-42.62 138,-29 142.38,-26.87 147.06,-24.89 151.78,-23.08"/>
<polygon fill="midnightblue" stroke="midnightblue" points="153.24,-26.27 161.46,-19.59 150.87,-19.69 153.24,-26.27"/>
</g>
</g>
</svg>
