<?xml version="1.0" encoding="UTF-8" standalone="no"?>
<!DOCTYPE svg PUBLIC "-//W3C//DTD SVG 1.1//EN"
 "http://www.w3.org/Graphics/SVG/1.1/DTD/svg11.dtd">
<!-- Generated by graphviz version 2.49.3 (20211023.0002)
 -->
<!-- Title: McCluskey::mergingBit Pages: 1 -->
<svg width="283pt" height="218pt"
 viewBox="0.00 0.00 283.00 218.00" xmlns="http://www.w3.org/2000/svg" xmlns:xlink="http://www.w3.org/1999/xlink">
<g id="graph0" class="graph" transform="scale(1 1) rotate(0) translate(4 214)">
<title>McCluskey::mergingBit</title>
<polygon fill="white" stroke="transparent" points="-4,4 -4,-214 279,-214 279,4 -4,4"/>
<!-- Node1 -->
<g id="node1" class="node">
<title>Node1</title>
<g id="a_node1"><a xlink:title="function that combines two nodes">
<polygon fill="#bfbfbf" stroke="black" points="0,-95.5 0,-114.5 119,-114.5 119,-95.5 0,-95.5"/>
<text text-anchor="middle" x="59.5" y="-102.5" font-family="Helvetica,sans-Serif" font-size="10.00">McCluskey::mergingBit</text>
</a>
</g>
</g>
<!-- Node2 -->
<g id="node2" class="node">
<title>Node2</title>
<g id="a_node2"><a xlink:href="../../d9/de1/class_mc_cluskey.html#a99f36c7ec89a9bd6d087fc652c9a9ba5" target="_top" xlink:title="If there is only one bit difference among the two nodes, a function to know the bit position.">
<polygon fill="white" stroke="black" points="157,-190.5 157,-209.5 273,-209.5 273,-190.5 157,-190.5"/>
<text text-anchor="middle" x="215" y="-197.5" font-family="Helvetica,sans-Serif" font-size="10.00">McCluskey::bitposition</text>
</a>
</g>
</g>
<!-- Node1&#45;&gt;Node2 -->
<g id="edge1" class="edge">
<title>Node1&#45;&gt;Node2</title>
<path fill="none" stroke="midnightblue" d="M69.84,-114.52C85.89,-130.38 120.34,-162.32 155,-181 159,-183.16 163.28,-185.12 167.65,-186.89"/>
<polygon fill="midnightblue" stroke="midnightblue" points="166.66,-190.26 177.26,-190.47 169.11,-183.7 166.66,-190.26"/>
</g>
<!-- Node3 -->
<g id="node3" class="node">
<title>Node3</title>
<g id="a_node3"><a xlink:href="../../d9/de1/class_mc_cluskey.html#a2ecc243d3f015b34bb741a995764d86b" target="_top" xlink:title="This function checks how many bits of two nodes are different.">
<polygon fill="white" stroke="black" points="155,-152.5 155,-171.5 275,-171.5 275,-152.5 155,-152.5"/>
<text text-anchor="middle" x="215" y="-159.5" font-family="Helvetica,sans-Serif" font-size="10.00">McCluskey::comparebit</text>
</a>
</g>
</g>
<!-- Node1&#45;&gt;Node3 -->
<g id="edge2" class="edge">
<title>Node1&#45;&gt;Node3</title>
<path fill="none" stroke="midnightblue" d="M82.86,-114.51C101.9,-122.48 130.06,-133.98 155,-143 160.91,-145.14 167.2,-147.29 173.38,-149.34"/>
<polygon fill="midnightblue" stroke="midnightblue" points="172.34,-152.68 182.93,-152.45 174.51,-146.02 172.34,-152.68"/>
</g>
<!-- Node4 -->
<g id="node4" class="node">
<title>Node4</title>
<g id="a_node4"><a xlink:href="../../d9/de1/class_mc_cluskey.html#ade670fff7c8f07a9698d34c56c370c69" target="_top" xlink:title="function that counts the number of 1">
<polygon fill="white" stroke="black" points="164.5,-114.5 164.5,-133.5 265.5,-133.5 265.5,-114.5 164.5,-114.5"/>
<text text-anchor="middle" x="215" y="-121.5" font-family="Helvetica,sans-Serif" font-size="10.00">McCluskey::count1</text>
</a>
</g>
</g>
<!-- Node1&#45;&gt;Node4 -->
<g id="edge3" class="edge">
<title>Node1&#45;&gt;Node4</title>
<path fill="none" stroke="midnightblue" d="M119.41,-112.29C130.92,-113.72 142.99,-115.21 154.52,-116.64"/>
<polygon fill="midnightblue" stroke="midnightblue" points="154.13,-120.12 164.48,-117.87 154.99,-113.17 154.13,-120.12"/>
</g>
<!-- Node5 -->
<g id="node5" class="node">
<title>Node5</title>
<g id="a_node5"><a target="_blank" xlink:href="http://en.cppreference.com/w/cpp/io/c/fprintf.html#" xlink:title=" ">
<polygon fill="white" stroke="black" points="186,-76.5 186,-95.5 244,-95.5 244,-76.5 186,-76.5"/>
<text text-anchor="middle" x="215" y="-83.5" font-family="Helvetica,sans-Serif" font-size="10.00">std::printf</text>
</a>
</g>
</g>
<!-- Node1&#45;&gt;Node5 -->
<g id="edge4" class="edge">
<title>Node1&#45;&gt;Node5</title>
<path fill="none" stroke="midnightblue" d="M119.41,-97.71C138.31,-95.37 158.75,-92.84 175.77,-90.73"/>
<polygon fill="midnightblue" stroke="midnightblue" points="176.38,-94.18 185.88,-89.48 175.52,-87.24 176.38,-94.18"/>
</g>
<!-- Node6 -->
<g id="node6" class="node">
<title>Node6</title>
<g id="a_node6"><a target="_blank" xlink:href="http://en.cppreference.com/w/cpp/container/vector/push_back.html#" xlink:title=" ">
<polygon fill="white" stroke="black" points="156.5,-38.5 156.5,-57.5 273.5,-57.5 273.5,-38.5 156.5,-38.5"/>
<text text-anchor="middle" x="215" y="-45.5" font-family="Helvetica,sans-Serif" font-size="10.00">std::vector::push_back</text>
</a>
</g>
</g>
<!-- Node1&#45;&gt;Node6 -->
<g id="edge5" class="edge">
<title>Node1&#45;&gt;Node6</title>
<path fill="none" stroke="midnightblue" d="M82.86,-95.49C101.9,-87.52 130.06,-76.02 155,-67 160.91,-64.86 167.2,-62.71 173.38,-60.66"/>
<polygon fill="midnightblue" stroke="midnightblue" points="174.51,-63.98 182.93,-57.55 172.34,-57.32 174.51,-63.98"/>
</g>
<!-- Node7 -->
<g id="node7" class="node">
<title>Node7</title>
<g id="a_node7"><a target="_blank" xlink:href="http://en.cppreference.com/w/cpp/container/vector/size.html#" xlink:title=" ">
<polygon fill="white" stroke="black" points="172,-0.5 172,-19.5 258,-19.5 258,-0.5 172,-0.5"/>
<text text-anchor="middle" x="215" y="-7.5" font-family="Helvetica,sans-Serif" font-size="10.00">std::vector::size</text>
</a>
</g>
</g>
<!-- Node1&#45;&gt;Node7 -->
<g id="edge6" class="edge">
<title>Node1&#45;&gt;Node7</title>
<path fill="none" stroke="midnightblue" d="M69.84,-95.48C85.89,-79.62 120.34,-47.68 155,-29 159,-26.84 163.28,-24.88 167.65,-23.11"/>
<polygon fill="midnightblue" stroke="midnightblue" points="169.11,-26.3 177.26,-19.53 166.66,-19.74 169.11,-26.3"/>
</g>
</g>
</svg>
