<?xml version="1.0" encoding="UTF-8" standalone="no"?>
<!DOCTYPE svg PUBLIC "-//W3C//DTD SVG 1.1//EN"
 "http://www.w3.org/Graphics/SVG/1.1/DTD/svg11.dtd">
<!-- Generated by graphviz version 2.50.0 (20211204.2007)
 -->
<!-- Title: McCluskey::selectNum Pages: 1 -->
<svg width="279pt" height="66pt"
 viewBox="0.00 0.00 279.00 66.00" xmlns="http://www.w3.org/2000/svg" xmlns:xlink="http://www.w3.org/1999/xlink">
<g id="graph0" class="graph" transform="scale(1 1) rotate(0) translate(4 62)">
<title>McCluskey::selectNum</title>
<polygon fill="white" stroke="transparent" points="-4,4 -4,-62 275,-62 275,4 -4,4"/>
<!-- Node1 -->
<g id="node1" class="node">
<title>Node1</title>
<g id="a_node1"><a xlink:title="This is a function that receives a number from 0 to 15, creates a node, and adds it to the vector....">
<polygon fill="#bfbfbf" stroke="black" points="0,-19.5 0,-38.5 119,-38.5 119,-19.5 0,-19.5"/>
<text text-anchor="middle" x="59.5" y="-26.5" font-family="Helvetica,sans-Serif" font-size="10.00">McCluskey::selectNum</text>
</a>
</g>
</g>
<!-- Node2 -->
<g id="node2" class="node">
<title>Node2</title>
<g id="a_node2"><a xlink:href="../../d9/de1/class_mc_cluskey.html#ade670fff7c8f07a9698d34c56c370c69" target="_top" xlink:title="function that counts the number of 1">
<polygon fill="white" stroke="black" points="162.5,-38.5 162.5,-57.5 263.5,-57.5 263.5,-38.5 162.5,-38.5"/>
<text text-anchor="middle" x="213" y="-45.5" font-family="Helvetica,sans-Serif" font-size="10.00">McCluskey::count1</text>
</a>
</g>
</g>
<!-- Node1&#45;&gt;Node2 -->
<g id="edge1" class="edge">
<title>Node1&#45;&gt;Node2</title>
<path fill="none" stroke="midnightblue" d="M119.07,-36.35C130.04,-37.72 141.51,-39.16 152.5,-40.54"/>
<polygon fill="midnightblue" stroke="midnightblue" points="152.08,-44.01 162.44,-41.78 152.95,-37.07 152.08,-44.01"/>
</g>
<!-- Node3 -->
<g id="node3" class="node">
<title>Node3</title>
<g id="a_node3"><a target="_blank" xlink:href="http://en.cppreference.com/w/cpp/container/vector/push_back.html#" xlink:title=" ">
<polygon fill="white" stroke="black" points="155,-0.5 155,-19.5 271,-19.5 271,-0.5 155,-0.5"/>
<text text-anchor="middle" x="213" y="-7.5" font-family="Helvetica,sans-Serif" font-size="10.00">std::vector::push_back</text>
</a>
</g>
</g>
<!-- Node1&#45;&gt;Node3 -->
<g id="edge2" class="edge">
<title>Node1&#45;&gt;Node3</title>
<path fill="none" stroke="midnightblue" d="M119.07,-21.65C127.36,-20.61 135.94,-19.54 144.38,-18.48"/>
<polygon fill="midnightblue" stroke="midnightblue" points="145.09,-21.92 154.58,-17.2 144.22,-14.97 145.09,-21.92"/>
</g>
</g>
</svg>
