<?xml version="1.0" encoding="UTF-8" standalone="no"?>
<!DOCTYPE svg PUBLIC "-//W3C//DTD SVG 1.1//EN"
 "http://www.w3.org/Graphics/SVG/1.1/DTD/svg11.dtd">
<!-- Generated by graphviz version 2.50.0 (20211204.2007)
 -->
<!-- Title: McCluskey::delNotPi Pages: 1 -->
<svg width="261pt" height="142pt"
 viewBox="0.00 0.00 261.00 142.00" xmlns="http://www.w3.org/2000/svg" xmlns:xlink="http://www.w3.org/1999/xlink">
<g id="graph0" class="graph" transform="scale(1 1) rotate(0) translate(4 138)">
<title>McCluskey::delNotPi</title>
<polygon fill="white" stroke="transparent" points="-4,4 -4,-138 257,-138 257,4 -4,4"/>
<!-- Node1 -->
<g id="node1" class="node">
<title>Node1</title>
<g id="a_node1"><a xlink:title="Function to delete if term is not pi.">
<polygon fill="#bfbfbf" stroke="black" points="0,-57.5 0,-76.5 110,-76.5 110,-57.5 0,-57.5"/>
<text text-anchor="middle" x="55" y="-64.5" font-family="Helvetica,sans-Serif" font-size="10.00">McCluskey::delNotPi</text>
</a>
</g>
</g>
<!-- Node2 -->
<g id="node2" class="node">
<title>Node2</title>
<g id="a_node2"><a target="_blank" xlink:href="http://en.cppreference.com/w/cpp/container/vector/begin.html#" xlink:title=" ">
<polygon fill="white" stroke="black" points="153.5,-114.5 153.5,-133.5 245.5,-133.5 245.5,-114.5 153.5,-114.5"/>
<text text-anchor="middle" x="199.5" y="-121.5" font-family="Helvetica,sans-Serif" font-size="10.00">std::vector::begin</text>
</a>
</g>
</g>
<!-- Node1&#45;&gt;Node2 -->
<g id="edge1" class="edge">
<title>Node1&#45;&gt;Node2</title>
<path fill="none" stroke="midnightblue" d="M77.69,-76.54C95.84,-84.42 122.47,-95.78 146,-105 150.95,-106.94 156.19,-108.92 161.36,-110.83"/>
<polygon fill="midnightblue" stroke="midnightblue" points="160.56,-114.27 171.15,-114.41 162.96,-107.69 160.56,-114.27"/>
</g>
<!-- Node3 -->
<g id="node3" class="node">
<title>Node3</title>
<g id="a_node3"><a target="_blank" xlink:href="http://en.cppreference.com/w/cpp/container/vector/erase.html#" xlink:title=" ">
<polygon fill="white" stroke="black" points="153,-76.5 153,-95.5 246,-95.5 246,-76.5 153,-76.5"/>
<text text-anchor="middle" x="199.5" y="-83.5" font-family="Helvetica,sans-Serif" font-size="10.00">std::vector::erase</text>
</a>
</g>
</g>
<!-- Node1&#45;&gt;Node3 -->
<g id="edge2" class="edge">
<title>Node1&#45;&gt;Node3</title>
<path fill="none" stroke="midnightblue" d="M110.28,-74.24C120.89,-75.65 132.03,-77.14 142.69,-78.56"/>
<polygon fill="midnightblue" stroke="midnightblue" points="142.35,-82.04 152.73,-79.9 143.28,-75.11 142.35,-82.04"/>
</g>
<!-- Node4 -->
<g id="node4" class="node">
<title>Node4</title>
<g id="a_node4"><a xlink:href="../../d9/de1/class_mc_cluskey.html#a359be1debe7c492deb1bb565704842e1" target="_top" xlink:title="function that checks whether the selected number belongs to the next column">
<polygon fill="white" stroke="black" points="146,-38.5 146,-57.5 253,-57.5 253,-38.5 146,-38.5"/>
<text text-anchor="middle" x="199.5" y="-45.5" font-family="Helvetica,sans-Serif" font-size="10.00">McCluskey::selectPi</text>
</a>
</g>
</g>
<!-- Node1&#45;&gt;Node4 -->
<g id="edge3" class="edge">
<title>Node1&#45;&gt;Node4</title>
<path fill="none" stroke="midnightblue" d="M110.28,-59.76C118.56,-58.66 127.16,-57.51 135.6,-56.39"/>
<polygon fill="midnightblue" stroke="midnightblue" points="136.33,-59.82 145.78,-55.03 135.41,-52.88 136.33,-59.82"/>
</g>
<!-- Node5 -->
<g id="node5" class="node">
<title>Node5</title>
<g id="a_node5"><a target="_blank" xlink:href="http://en.cppreference.com/w/cpp/container/vector/size.html#" xlink:title=" ">
<polygon fill="white" stroke="black" points="156,-0.5 156,-19.5 243,-19.5 243,-0.5 156,-0.5"/>
<text text-anchor="middle" x="199.5" y="-7.5" font-family="Helvetica,sans-Serif" font-size="10.00">std::vector::size</text>
</a>
</g>
</g>
<!-- Node1&#45;&gt;Node5 -->
<g id="edge4" class="edge">
<title>Node1&#45;&gt;Node5</title>
<path fill="none" stroke="midnightblue" d="M77.69,-57.46C95.84,-49.58 122.47,-38.22 146,-29 150.95,-27.06 156.19,-25.08 161.36,-23.17"/>
<polygon fill="midnightblue" stroke="midnightblue" points="162.96,-26.31 171.15,-19.59 160.56,-19.73 162.96,-26.31"/>
</g>
</g>
</svg>
