<?xml version="1.0" encoding="UTF-8" standalone="no"?>
<!DOCTYPE svg PUBLIC "-//W3C//DTD SVG 1.1//EN"
 "http://www.w3.org/Graphics/SVG/1.1/DTD/svg11.dtd">
<!-- Generated by graphviz version 2.49.3 (20211023.0002)
 -->
<!-- Title: McCluskey::quineExe Pages: 1 -->
<svg width="428pt" height="66pt"
 viewBox="0.00 0.00 428.00 66.00" xmlns="http://www.w3.org/2000/svg" xmlns:xlink="http://www.w3.org/1999/xlink">
<g id="graph0" class="graph" transform="scale(1 1) rotate(0) translate(4 62)">
<title>McCluskey::quineExe</title>
<polygon fill="white" stroke="transparent" points="-4,4 -4,-62 424,-62 424,4 -4,4"/>
<!-- Node1 -->
<g id="node1" class="node">
<title>Node1</title>
<g id="a_node1"><a xlink:title="execution function">
<polygon fill="#bfbfbf" stroke="black" points="0,-19.5 0,-38.5 113,-38.5 113,-19.5 0,-19.5"/>
<text text-anchor="middle" x="56.5" y="-26.5" font-family="Helvetica,sans-Serif" font-size="10.00">McCluskey::quineExe</text>
</a>
</g>
</g>
<!-- Node2 -->
<g id="node2" class="node">
<title>Node2</title>
<g id="a_node2"><a xlink:href="../../d9/de1/class_mc_cluskey.html#ae80ae7273e5e62af9c6ebe7cac25e545" target="_top" xlink:title="This is a function that receives a number from 0 to 15, creates a node, and adds it to the vector....">
<polygon fill="white" stroke="black" points="149,-19.5 149,-38.5 267,-38.5 267,-19.5 149,-19.5"/>
<text text-anchor="middle" x="208" y="-26.5" font-family="Helvetica,sans-Serif" font-size="10.00">McCluskey::selectNum</text>
</a>
</g>
</g>
<!-- Node1&#45;&gt;Node2 -->
<g id="edge1" class="edge">
<title>Node1&#45;&gt;Node2</title>
<path fill="none" stroke="midnightblue" d="M113.17,-29C121.43,-29 130.03,-29 138.52,-29"/>
<polygon fill="midnightblue" stroke="midnightblue" points="138.78,-32.5 148.78,-29 138.78,-25.5 138.78,-32.5"/>
</g>
<!-- Node3 -->
<g id="node3" class="node">
<title>Node3</title>
<g id="a_node3"><a xlink:href="../../d9/de1/class_mc_cluskey.html#ade670fff7c8f07a9698d34c56c370c69" target="_top" xlink:title="function that counts the number of 1">
<polygon fill="white" stroke="black" points="311,-38.5 311,-57.5 412,-57.5 412,-38.5 311,-38.5"/>
<text text-anchor="middle" x="361.5" y="-45.5" font-family="Helvetica,sans-Serif" font-size="10.00">McCluskey::count1</text>
</a>
</g>
</g>
<!-- Node2&#45;&gt;Node3 -->
<g id="edge2" class="edge">
<title>Node2&#45;&gt;Node3</title>
<path fill="none" stroke="midnightblue" d="M267.14,-36.29C278.13,-37.67 289.64,-39.11 300.68,-40.5"/>
<polygon fill="midnightblue" stroke="midnightblue" points="300.3,-43.98 310.66,-41.75 301.17,-37.03 300.3,-43.98"/>
</g>
<!-- Node4 -->
<g id="node4" class="node">
<title>Node4</title>
<g id="a_node4"><a target="_blank" xlink:href="http://en.cppreference.com/w/cpp/container/vector/push_back.html#" xlink:title=" ">
<polygon fill="white" stroke="black" points="303,-0.5 303,-19.5 420,-19.5 420,-0.5 303,-0.5"/>
<text text-anchor="middle" x="361.5" y="-7.5" font-family="Helvetica,sans-Serif" font-size="10.00">std::vector::push_back</text>
</a>
</g>
</g>
<!-- Node2&#45;&gt;Node4 -->
<g id="edge3" class="edge">
<title>Node2&#45;&gt;Node4</title>
<path fill="none" stroke="midnightblue" d="M267.14,-21.71C275.54,-20.66 284.24,-19.56 292.8,-18.49"/>
<polygon fill="midnightblue" stroke="midnightblue" points="293.28,-21.96 302.77,-17.24 292.41,-15.01 293.28,-21.96"/>
</g>
</g>
</svg>
