<?xml version="1.0" encoding="UTF-8" standalone="no"?>
<!DOCTYPE svg PUBLIC "-//W3C//DTD SVG 1.1//EN"
 "http://www.w3.org/Graphics/SVG/1.1/DTD/svg11.dtd">
<!-- Generated by graphviz version 2.49.3 (20211023.0002)
 -->
<!-- Title: bit_manipulation/quine_mccluskey.cpp Pages: 1 -->
<svg width="328pt" height="95pt"
 viewBox="0.00 0.00 328.00 95.00" xmlns="http://www.w3.org/2000/svg" xmlns:xlink="http://www.w3.org/1999/xlink">
<g id="graph0" class="graph" transform="scale(1 1) rotate(0) translate(4 91)">
<title>bit_manipulation/quine_mccluskey.cpp</title>
<polygon fill="white" stroke="transparent" points="-4,4 -4,-91 324,-91 324,4 -4,4"/>
<!-- Node1 -->
<g id="node1" class="node">
<title>Node1</title>
<g id="a_node1"><a xlink:title="Implementation of minimization of Boolean functions">
<polygon fill="#bfbfbf" stroke="black" points="106,-56.5 106,-86.5 223,-86.5 223,-56.5 106,-56.5"/>
<text text-anchor="start" x="114" y="-74.5" font-family="Helvetica,sans-Serif" font-size="10.00">bit_manipulation/quine</text>
<text text-anchor="middle" x="164.5" y="-63.5" font-family="Helvetica,sans-Serif" font-size="10.00">_mccluskey.cpp</text>
</a>
</g>
</g>
<!-- Node2 -->
<g id="node2" class="node">
<title>Node2</title>
<g id="a_node2"><a xlink:title=" ">
<polygon fill="white" stroke="#bfbfbf" points="0,-0.5 0,-19.5 55,-19.5 55,-0.5 0,-0.5"/>
<text text-anchor="middle" x="27.5" y="-7.5" font-family="Helvetica,sans-Serif" font-size="10.00">iostream</text>
</a>
</g>
</g>
<!-- Node1&#45;&gt;Node2 -->
<g id="edge1" class="edge">
<title>Node1&#45;&gt;Node2</title>
<path fill="none" stroke="midnightblue" d="M132.03,-56.4C109.15,-46.46 78.77,-33.26 56.66,-23.66"/>
<polygon fill="midnightblue" stroke="midnightblue" points="58,-20.43 47.43,-19.66 55.21,-26.85 58,-20.43"/>
</g>
<!-- Node3 -->
<g id="node3" class="node">
<title>Node3</title>
<g id="a_node3"><a xlink:title=" ">
<polygon fill="white" stroke="#bfbfbf" points="73.5,-0.5 73.5,-19.5 117.5,-19.5 117.5,-0.5 73.5,-0.5"/>
<text text-anchor="middle" x="95.5" y="-7.5" font-family="Helvetica,sans-Serif" font-size="10.00">vector</text>
</a>
</g>
</g>
<!-- Node1&#45;&gt;Node3 -->
<g id="edge2" class="edge">
<title>Node1&#45;&gt;Node3</title>
<path fill="none" stroke="midnightblue" d="M148.15,-56.4C137.6,-47.31 123.9,-35.49 113.12,-26.19"/>
<polygon fill="midnightblue" stroke="midnightblue" points="115.4,-23.54 105.54,-19.66 110.83,-28.84 115.4,-23.54"/>
</g>
<!-- Node4 -->
<g id="node4" class="node">
<title>Node4</title>
<g id="a_node4"><a xlink:title=" ">
<polygon fill="white" stroke="#bfbfbf" points="135.5,-0.5 135.5,-19.5 193.5,-19.5 193.5,-0.5 135.5,-0.5"/>
<text text-anchor="middle" x="164.5" y="-7.5" font-family="Helvetica,sans-Serif" font-size="10.00">algorithm</text>
</a>
</g>
</g>
<!-- Node1&#45;&gt;Node4 -->
<g id="edge3" class="edge">
<title>Node1&#45;&gt;Node4</title>
<path fill="none" stroke="midnightblue" d="M164.5,-56.4C164.5,-48.47 164.5,-38.46 164.5,-29.86"/>
<polygon fill="midnightblue" stroke="midnightblue" points="168,-29.66 164.5,-19.66 161,-29.66 168,-29.66"/>
</g>
<!-- Node5 -->
<g id="node5" class="node">
<title>Node5</title>
<g id="a_node5"><a xlink:title=" ">
<polygon fill="white" stroke="#bfbfbf" points="212,-0.5 212,-19.5 253,-19.5 253,-0.5 212,-0.5"/>
<text text-anchor="middle" x="232.5" y="-7.5" font-family="Helvetica,sans-Serif" font-size="10.00">string</text>
</a>
</g>
</g>
<!-- Node1&#45;&gt;Node5 -->
<g id="edge4" class="edge">
<title>Node1&#45;&gt;Node5</title>
<path fill="none" stroke="midnightblue" d="M180.62,-56.4C190.9,-47.4 204.25,-35.72 214.83,-26.47"/>
<polygon fill="midnightblue" stroke="midnightblue" points="217.38,-28.88 222.61,-19.66 212.77,-23.61 217.38,-28.88"/>
</g>
<!-- Node6 -->
<g id="node6" class="node">
<title>Node6</title>
<g id="a_node6"><a xlink:title=" ">
<polygon fill="white" stroke="#bfbfbf" points="271,-0.5 271,-19.5 320,-19.5 320,-0.5 271,-0.5"/>
<text text-anchor="middle" x="295.5" y="-7.5" font-family="Helvetica,sans-Serif" font-size="10.00">cassert</text>
</a>
</g>
</g>
<!-- Node1&#45;&gt;Node6 -->
<g id="edge5" class="edge">
<title>Node1&#45;&gt;Node6</title>
<path fill="none" stroke="midnightblue" d="M195.55,-56.4C217.23,-46.55 245.96,-33.5 267.05,-23.92"/>
<polygon fill="midnightblue" stroke="midnightblue" points="268.78,-26.98 276.44,-19.66 265.89,-20.61 268.78,-26.98"/>
</g>
</g>
</svg>
