<?xml version="1.0" encoding="UTF-8" standalone="no"?>
<!DOCTYPE svg PUBLIC "-//W3C//DTD SVG 1.1//EN"
 "http://www.w3.org/Graphics/SVG/1.1/DTD/svg11.dtd">
<!-- Generated by graphviz version 2.49.3 (20211023.0002)
 -->
<!-- Title: bit_manipulation/quine_mccluskey.cpp Pages: 1 -->
<svg width="385pt" height="95pt"
 viewBox="0.00 0.00 385.00 95.00" xmlns="http://www.w3.org/2000/svg" xmlns:xlink="http://www.w3.org/1999/xlink">
<g id="graph0" class="graph" transform="scale(1 1) rotate(0) translate(4 91)">
<title>bit_manipulation/quine_mccluskey.cpp</title>
<polygon fill="white" stroke="transparent" points="-4,4 -4,-91 381,-91 381,4 -4,4"/>
<!-- Node1 -->
<g id="node1" class="node">
<title>Node1</title>
<g id="a_node1"><a xlink:title="Implementation of minimization of Boolean functions">
<polygon fill="#bfbfbf" stroke="black" points="140,-56.5 140,-86.5 257,-86.5 257,-56.5 140,-56.5"/>
<text text-anchor="start" x="148" y="-74.5" font-family="Helvetica,sans-Serif" font-size="10.00">bit_manipulation/quine</text>
<text text-anchor="middle" x="198.5" y="-63.5" font-family="Helvetica,sans-Serif" font-size="10.00">_mccluskey.cpp</text>
</a>
</g>
</g>
<!-- Node2 -->
<g id="node2" class="node">
<title>Node2</title>
<g id="a_node2"><a xlink:title=" ">
<polygon fill="white" stroke="#bfbfbf" points="0,-0.5 0,-19.5 55,-19.5 55,-0.5 0,-0.5"/>
<text text-anchor="middle" x="27.5" y="-7.5" font-family="Helvetica,sans-Serif" font-size="10.00">iostream</text>
</a>
</g>
</g>
<!-- Node1&#45;&gt;Node2 -->
<g id="edge1" class="edge">
<title>Node1&#45;&gt;Node2</title>
<path fill="none" stroke="midnightblue" d="M157.98,-56.4C128.77,-46.24 89.78,-32.67 62.05,-23.02"/>
<polygon fill="midnightblue" stroke="midnightblue" points="62.98,-19.64 52.38,-19.66 60.68,-26.25 62.98,-19.64"/>
</g>
<!-- Node3 -->
<g id="node3" class="node">
<title>Node3</title>
<g id="a_node3"><a xlink:title=" ">
<polygon fill="white" stroke="#bfbfbf" points="73.5,-0.5 73.5,-19.5 117.5,-19.5 117.5,-0.5 73.5,-0.5"/>
<text text-anchor="middle" x="95.5" y="-7.5" font-family="Helvetica,sans-Serif" font-size="10.00">vector</text>
</a>
</g>
</g>
<!-- Node1&#45;&gt;Node3 -->
<g id="edge2" class="edge">
<title>Node1&#45;&gt;Node3</title>
<path fill="none" stroke="midnightblue" d="M174.09,-56.4C157.58,-46.86 135.88,-34.32 119.46,-24.84"/>
<polygon fill="midnightblue" stroke="midnightblue" points="120.9,-21.63 110.49,-19.66 117.4,-27.69 120.9,-21.63"/>
</g>
<!-- Node4 -->
<g id="node4" class="node">
<title>Node4</title>
<g id="a_node4"><a xlink:title=" ">
<polygon fill="white" stroke="#bfbfbf" points="135.5,-0.5 135.5,-19.5 193.5,-19.5 193.5,-0.5 135.5,-0.5"/>
<text text-anchor="middle" x="164.5" y="-7.5" font-family="Helvetica,sans-Serif" font-size="10.00">algorithm</text>
</a>
</g>
</g>
<!-- Node1&#45;&gt;Node4 -->
<g id="edge3" class="edge">
<title>Node1&#45;&gt;Node4</title>
<path fill="none" stroke="midnightblue" d="M190.44,-56.4C185.65,-48.02 179.54,-37.33 174.46,-28.42"/>
<polygon fill="midnightblue" stroke="midnightblue" points="177.45,-26.6 169.45,-19.66 171.37,-30.08 177.45,-26.6"/>
</g>
<!-- Node5 -->
<g id="node5" class="node">
<title>Node5</title>
<g id="a_node5"><a xlink:title=" ">
<polygon fill="white" stroke="#bfbfbf" points="212,-0.5 212,-19.5 253,-19.5 253,-0.5 212,-0.5"/>
<text text-anchor="middle" x="232.5" y="-7.5" font-family="Helvetica,sans-Serif" font-size="10.00">string</text>
</a>
</g>
</g>
<!-- Node1&#45;&gt;Node5 -->
<g id="edge4" class="edge">
<title>Node1&#45;&gt;Node5</title>
<path fill="none" stroke="midnightblue" d="M206.56,-56.4C211.35,-48.02 217.46,-37.33 222.54,-28.42"/>
<polygon fill="midnightblue" stroke="midnightblue" points="225.63,-30.08 227.55,-19.66 219.55,-26.6 225.63,-30.08"/>
</g>
<!-- Node6 -->
<g id="node6" class="node">
<title>Node6</title>
<g id="a_node6"><a xlink:title=" ">
<polygon fill="white" stroke="#bfbfbf" points="271,-0.5 271,-19.5 320,-19.5 320,-0.5 271,-0.5"/>
<text text-anchor="middle" x="295.5" y="-7.5" font-family="Helvetica,sans-Serif" font-size="10.00">cassert</text>
</a>
</g>
</g>
<!-- Node1&#45;&gt;Node6 -->
<g id="edge5" class="edge">
<title>Node1&#45;&gt;Node6</title>
<path fill="none" stroke="midnightblue" d="M221.49,-56.4C236.89,-46.95 257.09,-34.56 272.5,-25.11"/>
<polygon fill="midnightblue" stroke="midnightblue" points="274.69,-27.87 281.39,-19.66 271.03,-21.9 274.69,-27.87"/>
</g>
<!-- Node7 -->
<g id="node7" class="node">
<title>Node7</title>
<g id="a_node7"><a xlink:title=" ">
<polygon fill="white" stroke="#bfbfbf" points="338,-0.5 338,-19.5 377,-19.5 377,-0.5 338,-0.5"/>
<text text-anchor="middle" x="357.5" y="-7.5" font-family="Helvetica,sans-Serif" font-size="10.00">array</text>
</a>
</g>
</g>
<!-- Node1&#45;&gt;Node7 -->
<g id="edge6" class="edge">
<title>Node1&#45;&gt;Node7</title>
<path fill="none" stroke="midnightblue" d="M236.18,-56.4C264.39,-45.84 302.43,-31.61 328.34,-21.91"/>
<polygon fill="midnightblue" stroke="midnightblue" points="329.83,-25.09 337.97,-18.31 327.38,-18.54 329.83,-25.09"/>
</g>
</g>
</svg>
